<?xml version="1.0" standalone="no"?><!DOCTYPE svg PUBLIC "-//W3C//DTD SVG 1.1//EN" "http://www.w3.org/Graphics/SVG/1.1/DTD/svg11.dtd"><svg t="1646274615119" class="icon" viewBox="0 0 1024 1024" version="1.1" xmlns="http://www.w3.org/2000/svg" p-id="2766" xmlns:xlink="http://www.w3.org/1999/xlink" width="200" height="200"><defs><style type="text/css"></style></defs><path d="M1000.448 369.664l-151.04-238.08c-13.312-20.992-40.96-27.136-61.44-13.824L34.304 594.432c-20.992 13.312-27.136 40.96-13.824 61.44l151.04 238.08c13.312 20.48 40.96 26.624 61.44 13.824l753.664-476.672c20.48-12.8 26.624-40.448 13.824-61.44z m-30.208 35.84L216.576 882.176c-6.656 4.096-15.36 2.048-19.456-4.608L46.08 640c-4.096-6.656-2.048-15.36 4.608-19.456L803.84 143.36c6.656-4.096 15.36-2.048 19.456 4.608l151.04 238.08c4.608 6.656 2.56 15.36-4.096 19.456zM320.512 254.464l12.288 30.208 16.384-28.16 32.256-2.56-22.016-24.064 7.68-31.744-29.696 13.312-27.648-16.896 3.584 32.256-24.576 20.992 31.744 6.656z m192-89.088l-15.36-28.672-13.312 29.696-32.256 6.144 24.064 21.504-4.096 32.256 28.16-16.384 29.184 13.824-6.656-31.744 22.528-23.552-32.256-3.072z m292.352 478.72l-25.6-19.968v32.256l-27.136 18.432 31.232 10.24 9.216 31.232 19.456-26.112 32.768 1.024-18.944-26.624 11.264-30.208-32.256 9.728zM699.904 773.12l-12.288-30.208-16.384 28.16-32.256 2.56 21.504 24.064-7.68 31.744 29.696-12.8 27.648 17.408-3.072-32.256 24.576-20.992-31.744-7.68z m-192.512 88.064l15.36 28.672 13.312-29.696 32.256-5.632-24.064-22.016 4.608-32.256-28.16 15.872-29.184-14.336 6.656 31.744-22.528 23.552 31.744 4.096zM218.624 380.416l25.6 19.968 0.512-32.256 27.136-17.92-30.72-10.24-8.704-31.232-19.456 26.112-32.768-2.048 18.944 26.624-11.264 30.72c-0.512 0 30.72-9.728 30.72-9.728z m-114.176 140.288c-3.584-137.728 63.488-273.408 187.904-352.256s275.968-80.896 399.36-19.456l29.696-18.944c-36.352-20.48-75.776-35.328-116.736-44.544-55.296-12.288-111.104-13.824-166.912-4.608-57.344 9.728-111.616 30.208-161.28 61.952-50.176 31.232-92.16 71.68-125.44 119.296-32.256 46.08-54.784 97.792-67.072 152.576-9.216 40.96-12.288 82.944-9.728 124.416 0 0.512 30.208-18.432 30.208-18.432z m808.96-20.992c3.584 137.728-63.488 273.408-187.904 352.256s-275.968 80.896-399.36 19.456l-29.696 18.944c36.352 20.48 75.776 35.328 116.736 44.544 55.296 12.288 111.104 13.824 166.912 4.608 57.344-9.728 111.616-30.208 161.28-61.44s91.648-71.68 124.928-119.296c32.256-46.08 54.784-97.792 67.072-152.576 9.216-41.472 12.288-82.944 9.728-124.416l-29.696 17.92z m-531.456-189.44c34.816-22.016 73.216-33.792 111.616-36.352l46.08-29.184c-60.928-7.168-121.856 6.656-174.08 39.936S274.944 367.104 255.488 424.96l46.08-29.184c18.944-33.792 45.568-63.488 80.384-85.504z m253.952 399.872c-34.816 22.016-73.216 33.792-111.616 36.352l-46.08 29.184c60.928 7.168 121.344-6.656 174.08-39.936 52.224-33.28 90.624-82.432 110.08-140.288l-46.08 29.184c-18.432 33.792-45.568 63.488-80.384 85.504z" p-id="2767"></path><path d="M184.832 608.768l-40.96 25.6c-3.072 2.048-5.12 4.096-6.656 7.168l-12.288-6.656c3.584-1.536 7.68-4.096 11.264-6.144L266.24 547.328c-0.512-7.168-0.512-12.8 0-16.896 0.512-4.096 1.024-6.656 2.048-7.168 1.536-1.024 5.12-1.024 11.776-0.512 6.656 0.512 12.288 1.024 16.896 1.536s7.68 1.536 9.216 3.584c1.536 2.56 0.512 4.608-3.584 7.168l-44.544 28.16c0 2.048-0.512 4.096-1.024 6.144l36.352 57.856c-1.024-17.408-6.144-39.424-15.872-65.536 10.752-2.048 19.968-3.584 26.624-4.096 7.168-0.512 11.776-0.512 13.824-0.512 2.56 0 4.096 1.024 4.608 2.048s-0.512 3.072-3.584 6.144-5.632 7.68-7.68 14.336c-6.144 20.992-11.264 37.888-15.872 50.688l5.632 8.704 22.016-13.824c-2.048-15.872-2.048-24.576 0-26.112 2.56-1.536 9.728-1.536 22.528-1.024 12.8 1.024 19.456 2.56 20.992 4.608 1.536 2.048 0 4.608-4.096 7.168l-176.128 110.592c-1.536 1.024-2.56 2.56-3.584 5.12-1.024 2.56-1.536 4.096-1.536 4.608l-13.312-8.704c3.584-1.536 7.68-4.096 11.264-6.144l51.712-32.256-46.08-74.24z m-34.304 40.96c1.536-1.024 6.656-2.048 15.872-3.584 9.216-1.536 17.408-1.024 25.088 1.024 7.68 2.048 12.8 5.632 15.872 10.752 3.072 5.12 4.096 10.24 3.072 15.36-1.024 5.12-4.096 9.216-8.192 11.776-2.56 1.536-5.632 2.56-8.704 2.56-3.584 0-5.632-1.024-7.68-3.584s-3.072-5.632-4.096-8.192c-1.024-3.072-2.56-5.12-3.584-7.168-5.632-9.216-14.336-14.848-25.088-16.384-2.048-0.512-3.072-0.512-3.584-1.024s0-1.024 1.024-1.536z m58.368 91.648c1.024-0.512 5.632 1.536 13.312 6.656s13.824 10.752 17.92 17.92 6.144 13.824 5.12 20.992c-1.024 7.168-3.584 12.288-8.192 14.848-4.608 3.072-9.216 4.096-13.312 3.072-4.096-1.024-7.68-3.072-10.24-7.168-2.56-4.096-2.56-9.728-0.512-16.384 2.048-7.168 3.072-13.312 2.56-18.944-0.512-5.632-2.56-11.264-6.144-16.896-1.024-2.56-1.024-3.584-0.512-4.096z m21.504-161.792l-18.944 11.776c0 2.048-0.512 4.096-1.024 6.144l44.032 69.632 22.016-13.824-46.08-73.728z m27.648 132.096l19.968 32.256c3.072 5.12 6.656 7.168 10.752 7.168 4.096-0.512 13.312-5.12 27.648-14.336 10.24-6.656 16.896-11.776 19.456-15.36 2.56-3.584 3.584-8.704 3.072-14.848-1.024-6.144-3.072-12.8-6.144-19.968-3.584-7.168-4.608-11.264-4.096-11.264 0.512-0.512 2.56 2.048 6.656 7.168 4.096 5.12 7.68 9.216 10.752 11.776 3.072 2.56 5.632 4.608 8.192 5.632 2.56 1.024 6.144 1.536 11.264 2.048 5.12 0.512 8.192 1.536 9.728 3.584 1.536 2.048 1.536 6.144 0.512 11.776-1.024 5.632-4.096 11.776-9.728 16.896-5.632 5.632-17.92 14.336-36.352 26.112s-31.232 18.432-38.4 20.48c-6.656 2.048-12.8 1.536-17.408-1.024-5.12-2.56-10.24-8.192-15.872-17.408l-17.92-28.16c-3.584-6.144-7.68-11.776-11.776-17.408 6.144-3.584 12.288-6.656 17.92-9.216s9.728-4.096 10.752-4.096c1.536 0 2.56 0.512 3.072 1.536 1.024 1.536 0.512 3.584-2.048 6.656z m-5.632-25.088c4.096-2.56 10.752-5.632 19.968-8.704 9.216-3.072 16.896-4.096 23.04-3.072 6.144 1.536 10.752 4.096 13.824 9.216 3.072 4.608 4.096 9.728 2.56 15.36s-4.096 9.728-8.704 12.288c-2.048 1.536-5.12 2.048-8.704 1.536-3.584 0-7.168-3.072-10.24-8.192-7.168-11.776-16.896-16.896-29.184-16.384-2.56 0-3.584 0-4.096-0.512-0.512 0 0-1.024 1.536-1.536z m75.776-28.672c2.56-1.536 10.752-3.584 23.552-6.144 13.312-2.56 24.064-2.048 33.28 0.512s15.36 7.168 19.456 13.824c4.096 6.144 5.632 12.288 4.608 17.408s-3.072 9.728-7.168 11.776c-4.096 2.56-8.192 3.072-12.288 2.048-4.096-1.024-7.68-3.584-10.752-8.192-5.632-8.192-12.288-15.36-20.48-20.48-8.192-5.632-16.896-8.704-26.112-9.216-2.56 0-3.584-0.512-4.096-1.024-0.512 0.512-0.512 0 0-0.512zM437.248 454.144c-2.56-1.024-5.12-3.584-7.168-7.168-4.608-6.656-11.776-9.728-20.992-10.24-2.048 0-3.584 0-4.096-0.512-0.512-0.512 1.536-2.048 5.632-4.608 25.6-16.384 41.984-18.432 49.664-6.656 2.56 4.608 3.072 9.216 1.024 14.336l38.912-24.576c0-10.24 0-16.384 0.512-18.944s1.024-4.096 2.048-5.12c1.536-1.024 8.192-1.024 19.968 0.512 11.776 1.536 17.92 2.56 18.944 4.096 1.024 1.536 0 3.072-3.072 5.12L491.008 430.08c5.632-1.536 10.752-2.56 15.36-2.56 4.608-0.512 7.68 0 8.192 1.536 1.024 1.536 0.512 3.072-2.048 4.608-2.56 1.536-4.096 4.096-5.632 7.68-1.536 3.584-3.584 12.288-7.168 25.6l43.008-27.136c0-12.288 0.512-19.456 1.024-21.504 0.512-2.048 1.536-3.584 2.56-4.608 1.536-1.024 4.608-1.024 9.216 0l17.92 2.56c6.656 1.024 10.752 2.048 11.776 3.584 1.024 1.536 0 3.072-3.072 5.12l-192 120.32c-3.072 2.048-5.12 4.096-6.656 7.168l-12.288-6.656c3.584-1.536 7.68-4.096 11.264-6.144l54.784-34.304c-3.072 0.512-6.144-1.536-9.216-6.144-3.072-4.608-6.656-7.68-10.752-9.728s-9.216-3.584-15.36-4.608l-25.6 16.384c-3.072 2.048-5.12 4.096-6.656 7.168L357.376 501.76c3.584-1.536 7.68-4.096 11.264-6.144l68.608-41.472z m36.352 121.856c0.512 0.512 1.024 1.536 2.048 2.56 0.512 1.024 0.512 2.048-0.512 4.096-1.024 1.536-2.56 3.584-4.608 6.144 13.312-6.656 22.016-10.752 26.624-11.776 4.096-1.024 6.656-1.024 7.68 0 0.512 1.024 0 3.072-2.048 6.144l11.264 17.408c2.048 3.072 3.584 5.632 5.12 6.656 1.536 1.024 2.56 1.536 4.096 1.536 1.536 0 4.608-1.536 10.24-4.608 5.632-3.072 11.264-6.656 17.92-10.752 6.656-4.096 11.776-8.192 14.848-11.776 3.072-3.584 4.608-7.68 4.096-11.776-0.512-4.608-2.048-11.776-5.12-22.528-1.024-3.584-1.536-5.632-0.512-6.144 0.512-0.512 3.072 2.048 7.168 7.168s7.68 8.704 11.264 10.752c3.584 2.048 7.68 3.584 12.8 4.096s8.192 2.048 9.728 4.608c2.56 4.096 1.024 10.24-5.12 17.92s-18.944 17.92-38.912 30.208c-7.68 4.608-16.384 9.728-27.136 15.872-10.752 5.632-18.432 8.704-24.064 7.68-5.632-0.512-11.264-5.632-16.896-14.848l-11.776-18.432c-3.584-5.632-7.68-11.264-11.264-16.896-4.608 4.096-9.728 8.192-15.36 11.776-1.536 1.024-2.56 1.024-3.584 0l-5.632-9.728c-2.56-4.608-4.608-8.704-7.168-12.288l-14.848-23.552-12.288-18.432c13.312-5.632 24.576-9.216 32.256-10.24l76.8-48.128c0-5.12 0.512-8.192 0.512-9.728 0.512-1.536 1.024-2.56 1.536-3.072 1.536-1.024 6.144-2.048 14.848-3.584 8.704-1.536 14.336-2.048 17.408-2.048 3.072 0 5.12 1.024 6.144 2.56 1.024 1.536-0.512 4.096-3.584 8.192l11.264 18.432c4.096 6.144 6.656 10.752 8.704 13.312l4.608 7.168c0.512 1.024 0.512 2.56 0 4.096s-4.096 5.12-9.216 10.752-9.216 9.216-11.264 10.24c-1.536 1.024-3.072-0.512-5.12-3.584l-3.072-5.12-79.872 49.664z m0.512-135.168l-54.784 34.304c8.192-2.56 15.36-3.072 20.992-2.048 5.632 1.024 9.728 3.072 12.288 6.656 3.584 5.632 3.584 11.264 0.512 16.384l32.768-20.48c-2.56-11.776-6.656-23.552-11.776-34.816zM446.976 609.28c1.024-0.512 5.632 0.512 13.312 4.096 7.68 3.584 13.824 8.704 18.432 15.872 4.608 7.168 5.632 13.824 4.608 20.48-1.536 6.656-4.608 11.776-10.24 14.848-4.096 2.56-8.192 3.584-12.8 3.584-4.608 0-8.192-2.048-10.24-6.144-2.56-3.584-2.56-8.192-0.512-13.312s3.584-9.728 4.096-14.336c0.512-4.096 0.512-7.68-0.512-10.752s-2.56-6.656-5.632-11.264c-0.512-1.536-1.024-2.56-0.512-3.072z m8.704-61.44l79.872-50.176-8.704-13.824-76.288 48.128c0 1.536-0.512 3.072-2.048 4.608L455.68 547.84z m84.48-43.008l-79.872 50.176 8.704 13.824 79.872-50.176-8.704-13.824z m-38.912 58.88c10.752-6.656 20.48-10.752 29.696-11.776 9.216-1.536 16.384 1.536 20.992 9.216 2.56 4.096 3.072 8.192 2.048 12.8-1.024 4.608-4.096 8.192-8.192 10.752-6.656 4.096-12.288 3.584-16.896-2.048-4.608-5.632-8.704-9.216-12.288-11.776-3.584-2.56-7.168-3.584-11.264-3.584s-6.144-0.512-6.656-1.024c-0.512-0.512 0.512-1.536 2.56-2.56z m76.288-33.28c1.536-1.024 6.656-3.072 14.336-6.144 7.68-3.072 15.36-4.608 22.016-5.12 6.656-0.512 12.8 0.512 17.408 2.56 5.12 2.048 8.704 5.632 11.776 9.728 2.56 4.608 3.584 9.216 2.048 14.848-1.536 5.12-4.096 9.216-8.192 11.776-4.096 2.56-7.168 3.584-9.216 3.072-2.56-0.512-5.12-2.048-7.68-4.608-7.168-7.168-12.8-12.288-17.408-14.848-4.608-3.072-11.776-5.632-22.016-8.192-2.56-0.512-3.584-1.024-4.096-1.536s0-1.024 1.024-1.536zM636.416 358.4c-4.608-9.216-9.216-17.92-13.824-25.088-4.608-7.68-9.728-14.848-15.36-22.528 8.192-4.096 15.872-7.68 23.552-10.752s12.8-5.12 14.848-5.632c2.048-0.512 3.584 0 4.096 1.024 0.512 1.024 0 2.56-2.048 5.632s-2.56 6.144-2.56 12.288 0.512 18.944 2.56 37.888l18.944-11.776c-0.512-5.12-1.024-9.216-0.512-12.288 0.512-2.56 1.024-4.608 2.56-5.632 1.536-1.024 7.68-1.536 17.92-1.536 10.752 0 16.384 1.024 17.92 3.072 1.024 2.048-0.512 5.12-5.12 10.24L757.76 425.984c4.096 6.656 7.168 11.264 9.216 14.336l4.608 7.168c1.024 2.048 1.536 3.584 0.512 5.12-0.512 1.536-2.56 4.096-5.12 7.68-2.56 3.072-6.144 6.656-10.752 9.216-2.56 1.536-4.608 0.512-6.656-2.56l-6.656-10.24-34.816 22.016 8.192 12.8c1.024 1.536 1.024 3.072 1.024 4.608-0.512 1.536-2.048 4.096-5.12 7.168-3.072 3.072-6.144 5.632-9.728 7.68-3.072 2.048-5.12 3.072-5.632 2.56-0.512 0-1.536-1.024-2.048-2.048l-6.144-10.24c-4.096-7.168-8.192-13.824-11.776-19.456l-57.856-92.16c-5.632-8.704-10.24-16.384-14.848-22.016 9.216-3.072 19.456-6.144 30.72-8.192l1.536-1.024z m29.184 52.736l34.816-22.016-27.648-44.032-30.72 19.456c1.536 3.584 1.024 6.656-0.512 9.216l24.064 37.376z m39.424-14.848l-34.816 22.016 33.28 52.736 34.816-22.016-33.28-52.736z m27.136-47.616c-1.024 1.536-2.048 5.632-3.584 12.288-1.536 6.656-2.56 10.24-3.072 10.752-0.512 0.512-1.024 0-1.024-0.512-0.512-0.512-0.512-2.048-0.512-4.096-1.536-31.232-13.824-67.584-36.352-110.08 9.728-3.584 18.944-6.144 27.648-8.704 8.704-2.048 13.824-3.584 15.36-3.072s2.56 0.512 3.584 1.536c0.512 1.024 0 3.072-2.56 5.632-2.56 2.56-3.072 5.632-2.56 9.728l4.608 34.304 32.256-20.48c-1.536-11.264-0.512-17.408 1.536-19.456 1.536-1.024 6.144-1.536 13.824-1.536 7.68 0 13.824 0.512 18.944 0.512 5.12 0.512 8.192 1.536 9.728 3.584s-1.024 5.632-6.144 11.264c13.312 21.504 27.136 44.544 40.96 68.608 13.824 24.064 22.016 39.936 24.576 47.616 2.56 7.68 3.072 14.848 1.024 20.48-2.048 6.144-5.632 11.776-11.776 16.896-5.632 5.12-10.24 8.192-13.312 10.24s-5.12 2.56-6.144 2.56c-1.536 0-3.584-2.048-6.144-5.632-2.56-3.584-6.656-5.632-12.288-6.144-5.12-0.512-12.288 0.512-20.48 3.072-3.072 1.024-5.12 1.536-5.12 1.024-0.512-0.512 0.512-1.536 3.072-3.072l15.872-9.728c8.704-5.632 14.848-10.24 17.92-13.824 3.072-3.584 4.096-8.192 2.56-12.8-1.024-5.12-7.68-17.92-19.456-39.424-11.776-20.992-25.6-44.544-41.472-69.12l-39.424 24.576c0.512 14.848 0 28.16-2.048 40.448 15.872-4.608 28.16-6.656 38.4-6.144 9.728 0.512 16.896 4.096 20.48 10.24 3.584 6.144 5.12 11.776 4.096 16.896-1.024 5.12-3.584 9.216-8.192 12.288-4.608 3.072-8.192 4.096-11.264 3.072-2.56-1.024-6.144-4.608-10.24-11.264-10.24-15.872-20.992-23.04-33.28-22.528z" p-id="2768"></path></svg>